<svg xmlns="http://www.w3.org/2000/svg" width="28.801" height="28.801" viewBox="0 0 28.801 28.801">
  <g id="attach_file_black_24dp" transform="translate(14.4 0) rotate(45)">
    <path id="パス_54" data-name="パス 54" d="M0,0H20.365V20.365H0Z" transform="translate(0 0)" fill="none"/>
    <path id="パス_55" data-name="パス 55" d="M8.061,4.243V14a3.394,3.394,0,1,1-6.788,0V3.394a2.121,2.121,0,0,1,4.243,0V12.3a.849.849,0,1,1-1.7,0V4.243H2.546V12.3a2.121,2.121,0,0,0,4.243,0V3.394A3.394,3.394,0,0,0,0,3.394V14a4.667,4.667,0,0,0,9.334,0V4.243Z" transform="translate(5.94 0.849)" fill="#fff"/>
  </g>
</svg>
