<svg id="business_center_black_24dp" xmlns="http://www.w3.org/2000/svg" width="28.619" height="27.684" viewBox="0 0 28.619 27.684">
  <path id="パス_24" data-name="パス 24" d="M0,0H28.619V27.684H0Z" fill="none"/>
  <path id="パス_25" data-name="パス 25" d="M23.464,7.614h-4.77V5.307L16.309,3H11.54L9.155,5.307V7.614H4.385A2.354,2.354,0,0,0,2,9.921v5.768a2.277,2.277,0,0,0,1.192,2v3.772a2.339,2.339,0,0,0,2.385,2.307H22.272a2.339,2.339,0,0,0,2.385-2.307V17.673a2.31,2.31,0,0,0,1.192-1.984V9.921A2.354,2.354,0,0,0,23.464,7.614ZM11.54,5.307h4.77V7.614H11.54ZM4.385,9.921H23.464v5.768H17.5V12.228H10.347v3.461H4.385Zm10.732,6.921H12.732V14.535h2.385Zm7.155,4.614H5.577V18h4.77v1.154H17.5V18h4.77Z" transform="translate(0.385 0.461)" fill="#ff6b62"/>
</svg>
