<svg id="history_black_24dp" xmlns="http://www.w3.org/2000/svg" width="25.41" height="25.41" viewBox="0 0 25.41 25.41">
  <path id="パス_34" data-name="パス 34" d="M0,0H25.41V25.41H0Z" fill="none"/>
  <path id="パス_35" data-name="パス 35" d="M13.227,3a8.942,8.942,0,0,0-9.17,8.693H1L4.964,15.45l.071.135,4.117-3.892H6.095a6.949,6.949,0,0,1,7.133-6.761,6.949,6.949,0,0,1,7.133,6.761,6.949,6.949,0,0,1-7.133,6.761,7.273,7.273,0,0,1-5.034-1.99L6.747,17.836a9.381,9.381,0,0,0,6.48,2.55,8.942,8.942,0,0,0,9.17-8.693A8.942,8.942,0,0,0,13.227,3ZM12.208,7.829v4.829l4.331,2.434.785-1.236-3.587-2.019V7.829Z" transform="translate(0.337 1.012)" fill="#ff6b62"/>
</svg>
