<svg id="language_black_24dp" xmlns="http://www.w3.org/2000/svg" width="28" height="28" viewBox="0 0 28 28">
  <path id="パス_83" data-name="パス 83" d="M0,0H28V28H0Z" fill="none"/>
  <path id="パス_84" data-name="パス 84" d="M13.988,2A12,12,0,1,0,26,14,11.994,11.994,0,0,0,13.988,2ZM22.3,9.2h-3.54a18.779,18.779,0,0,0-1.656-4.272A9.636,9.636,0,0,1,22.3,9.2ZM14,4.448A16.9,16.9,0,0,1,16.292,9.2H11.708A16.9,16.9,0,0,1,14,4.448ZM4.712,16.4a9.387,9.387,0,0,1,0-4.8H8.768A19.818,19.818,0,0,0,8.6,14a19.818,19.818,0,0,0,.168,2.4ZM5.7,18.8h3.54a18.779,18.779,0,0,0,1.656,4.272A9.584,9.584,0,0,1,5.7,18.8Zm3.54-9.6H5.7a9.584,9.584,0,0,1,5.2-4.272A18.779,18.779,0,0,0,9.236,9.2ZM14,23.552A16.9,16.9,0,0,1,11.708,18.8h4.584A16.9,16.9,0,0,1,14,23.552ZM16.808,16.4H11.192A17.655,17.655,0,0,1,11,14a17.5,17.5,0,0,1,.192-2.4h5.616A17.5,17.5,0,0,1,17,14,17.655,17.655,0,0,1,16.808,16.4Zm.3,6.672A18.779,18.779,0,0,0,18.764,18.8H22.3A9.636,9.636,0,0,1,17.108,23.072ZM19.232,16.4A19.819,19.819,0,0,0,19.4,14a19.819,19.819,0,0,0-.168-2.4h4.056a9.387,9.387,0,0,1,0,4.8Z" fill="#ff6b62"/>
</svg>
