<svg id="library_books_black_24dp" xmlns="http://www.w3.org/2000/svg" width="28.619" height="27.684" viewBox="0 0 28.619 27.684">
  <path id="パス_26" data-name="パス 26" d="M0,0H28.619V27.684H0Z" fill="none"/>
  <path id="パス_27" data-name="パス 27" d="M4.385,6.614H2V22.763A2.354,2.354,0,0,0,4.385,25.07H21.079V22.763H4.385ZM23.464,2H9.155A2.354,2.354,0,0,0,6.77,4.307V18.149a2.354,2.354,0,0,0,2.385,2.307H23.464a2.354,2.354,0,0,0,2.385-2.307V4.307A2.354,2.354,0,0,0,23.464,2Zm0,16.149H9.155V4.307H23.464ZM11.54,10.075h9.54v2.307H11.54Zm0,3.461h4.77v2.307H11.54Zm0-6.921h9.54V8.921H11.54Z" transform="translate(0.385 0.307)" fill="#ff6b62"/>
</svg>
