<?xml version="1.0" encoding="UTF-8"?><svg xmlns="http://www.w3.org/2000/svg" viewBox="0 0 303.3 34.49"><defs><style>.d{fill:#45b5d5;}.e{fill:#0059a0;}</style></defs><g id="a"/><g id="b"><g id="c"><g><g><path class="e" d="M22.35,13.1H55.96v7.41H22.35v-7.41Z"/><path class="d" d="M16.19,0c3.73,0,6.63,.94,8.43,2.66,1.6,1.6,1.8,2.62,1.88,8.8v13.71c0,2.58-1.19,5.28-2.99,6.76-1.56,1.27-3.07,1.64-6.55,1.68H3.24c-1.79,0-3.24-1.45-3.24-3.24V3.24C0,1.45,1.45,0,3.24,0h12.95Zm-1.39,27.14c3.44,0,4.54-.94,4.67-4.01V10.93c.12-3.36-.94-4.34-4.95-4.5H7.74V27.14h7.06Z"/><path class="e" d="M60.03,.13h-9.7c-7.7-.04-10.69,2.87-10.93,10.77v9.6h7.57V12.37c.08-4.75,.9-5.69,4.95-5.81h6.22c4.01-.08,5.32,1.35,5.24,5.65v9.91c-.04,4.42-.65,5.08-4.75,5.16h-7.78c-.24,0-.46,0-.67-.02h-10.5c.3,1.6,.81,2.89,1.51,3.74,1.27,1.6,4.01,2.74,6.55,2.74h14.08c6.39-.16,8.93-2.95,9.13-9.95V10.77c-.04-7.78-2.87-10.48-10.93-10.64Z"/></g><g><path class="e" d="M90.08,2.47h9.92l7.97,21.16,7.97-21.16h9.96v31.39h-6.91V10.87l-8.67,23h-4.96l-8.55-22.84v22.84h-6.72V2.47Z"/><path class="e" d="M144.63,2.47h9.1l11.32,31.39h-8.04l-2.11-6.56h-11.64l-2.11,6.56h-7.85l11.32-31.39Zm8.36,18.86l-3.9-12.22-3.9,12.22h7.81Z"/><path class="e" d="M187.19,34.49c-10.46,0-16.13-6.09-16.13-16.32S177.15,1.85,187.62,1.85c4.96,0,8.86,1.29,11.13,2.89l-1.45,6.64c-2.23-1.87-5.15-3.12-9.14-3.12-6.4,0-9.57,3.79-9.57,9.92,0,6.48,3.28,9.92,9.53,9.92,1.68,0,3.32-.23,4.84-.62v-5.7h-6.76v-5.58h13.24v15.23c-2.27,1.64-7.11,3.08-12.26,3.08Z"/><path class="d" d="M222.64,2.47h11.28c11.95,0,16.17,6.99,16.17,15.66,0,10.54-5.94,15.74-16.17,15.74h-11.28V2.47Zm7.22,6.01V27.85h3.79c5.82,0,8.86-3.01,8.86-9.68,0-5.74-2.23-9.68-8.94-9.68h-3.71Z"/><path class="e" d="M258.91,2.47h7.22v31.39h-7.22V2.47Z"/><path class="e" d="M291.04,34.49c-10.46,0-16.13-6.09-16.13-16.32s6.09-16.32,16.56-16.32c4.96,0,8.86,1.29,11.13,2.89l-1.44,6.64c-2.23-1.87-5.15-3.12-9.14-3.12-6.4,0-9.57,3.79-9.57,9.92,0,6.48,3.28,9.92,9.53,9.92,1.68,0,3.32-.23,4.84-.62v-5.7h-6.76v-5.58h13.24v15.23c-2.26,1.64-7.11,3.08-12.26,3.08Z"/></g></g></g></g></svg>