<svg id="people_black_24dp" xmlns="http://www.w3.org/2000/svg" width="28.347" height="27.421" viewBox="0 0 28.347 27.421">
  <path id="パス_29" data-name="パス 29" d="M10.268,15C7.5,15,2,16.334,2,19v2H18.536V19C18.536,16.334,13.032,15,10.268,15Zm-5.5,3.713a11.68,11.68,0,0,1,5.5-1.428,11.68,11.68,0,0,1,5.5,1.428ZM10.268,13A4.073,4.073,0,0,0,14.4,9a4.073,4.073,0,0,0-4.134-4A4.073,4.073,0,0,0,6.134,9,4.073,4.073,0,0,0,10.268,13Zm0-5.713A1.715,1.715,0,1,1,8.5,9,1.741,1.741,0,0,1,10.268,7.285Zm8.315,7.781A4.76,4.76,0,0,1,20.9,19v2h4.724V19C25.622,16.688,21.488,15.374,18.583,15.066ZM17.354,13a4.073,4.073,0,0,0,4.134-4,4.073,4.073,0,0,0-4.134-4,4.183,4.183,0,0,0-1.772.4,6.074,6.074,0,0,1,0,7.2A4.183,4.183,0,0,0,17.354,13Z" transform="translate(0.362 0.713)" fill="#ff6b62"/>
  <path id="パス_28" data-name="パス 28" d="M0,0H28.347V27.421H0Z" fill="none"/>
</svg>
