<svg xmlns="http://www.w3.org/2000/svg" width="14.813" height="14.813" viewBox="0 0 14.813 14.813">
  <path id="plus-square" d="M12.344,8.023V6.789a.625.625,0,0,0-.617-.617H8.641V3.086a.625.625,0,0,0-.617-.617H6.789a.625.625,0,0,0-.617.617V6.172H3.086a.625.625,0,0,0-.617.617V8.023a.625.625,0,0,0,.617.617H6.172v3.086a.625.625,0,0,0,.617.617H8.023a.625.625,0,0,0,.617-.617V8.641h3.086a.625.625,0,0,0,.617-.617Zm2.469-5.246v9.258a2.782,2.782,0,0,1-2.777,2.777H2.777A2.676,2.676,0,0,1,.815,14,2.673,2.673,0,0,1,0,12.035V2.777A2.676,2.676,0,0,1,.815.815,2.673,2.673,0,0,1,2.777,0h9.258A2.676,2.676,0,0,1,14,.815,2.673,2.673,0,0,1,14.813,2.777Z" transform="translate(0 0)" fill="#ff6b62"/>
</svg>
